<?xml version="1.0" encoding="iso-8859-1"?>
<!-- Uploaded to: SVG Repo, www.svgrepo.com, Generator: SVG Repo Mixer Tools -->
<svg fill="#000000" height="800px" width="800px" version="1.1" id="Layer_1" xmlns="http://www.w3.org/2000/svg" xmlns:xlink="http://www.w3.org/1999/xlink" 
	 viewBox="0 0 512 512" xml:space="preserve">
<g>
	<g>
		<path d="M254.857,127.827c-15.125,0-27.428,12.268-27.428,27.348V301.62c0,15.08,12.303,27.348,27.428,27.348
			s27.428-12.268,27.428-27.348V155.175C282.286,140.094,269.982,127.827,254.857,127.827z M264,301.62
			c0,5.08-4.018,9.062-9.143,9.062c-5.045,0-9.143-4.062-9.143-9.062V155.175c0-5.08,4.018-9.062,9.143-9.062
			c5.045,0,9.143,4.062,9.143,9.062V301.62z"/>
	</g>
</g>
<g>
	<g>
		<path d="M256,356.397c-20.169,0-36.571,16.402-36.571,36.571S235.83,429.539,256,429.539s36.571-16.402,36.571-36.571
			S276.169,356.397,256,356.397z M256,411.254c-10.08,0-18.286-8.205-18.286-18.286c0-10.08,8.205-18.286,18.286-18.286
			c10.08,0,18.286,8.205,18.286,18.286C274.286,403.048,266.08,411.254,256,411.254z"/>
	</g>
</g>
<g>
	<g>
		<path d="M510.82,470.771L263.964,31.917c-3.232-5.75-12.696-5.75-15.929,0L1.18,470.771c-1.598,2.83-1.571,6.295,0.072,9.098
			c1.643,2.804,4.643,4.527,7.893,4.527h493.711c3.25,0,6.25-1.723,7.893-4.527C512.391,477.066,512.418,473.601,510.82,470.771z
			 M24.778,466.11L256,55.05l231.222,411.06H24.778z"/>
	</g>
</g>
</svg>